<svg width="24" height="15" viewBox="0 0 24 15" fill="none" xmlns="http://www.w3.org/2000/svg">
<path fill-rule="evenodd" clip-rule="evenodd" d="M19.5782 3.34754C19.8431 3.27669 20.892 3.24384 21.0296 3.39714C21.1537 3.53562 21.0351 4.33366 20.3868 4.59097C19.7898 4.828 19.2232 4.90207 19.2219 4.90207C19.6648 5.32879 20.6465 6.39381 20.6465 7.44723V11.2944C20.6465 11.4519 20.5744 11.6551 20.4191 11.7981V13.5278C20.4191 13.5356 20.4129 13.5417 20.4052 13.5417H18.0683C18.0606 13.5417 18.0544 13.5356 18.0544 13.5278V11.9743H11.9998H5.94514V13.5278C5.94514 13.5356 5.939 13.5417 5.93125 13.5417H3.59441C3.58666 13.5417 3.58052 13.5356 3.58052 13.5278V11.7981C3.42514 11.6551 3.3531 11.4519 3.3531 11.2944V7.44723C3.3531 6.39381 4.33481 5.32911 4.77801 4.90207C4.77672 4.90207 4.21012 4.82832 3.61315 4.59097C2.96514 4.33366 2.84626 3.53562 2.97063 3.39714C3.10824 3.24384 4.15714 3.27669 4.42203 3.34754C4.68582 3.4181 5.13926 4.36568 5.14302 4.37354C5.49366 3.61281 6.34728 1.79959 6.62093 1.57305C7.01245 1.24907 9.49239 0.951172 12.0001 0.951172C14.5075 0.951172 16.9878 1.24907 17.3793 1.57305C17.6529 1.79945 18.5067 3.61291 18.8572 4.37359L18.8573 4.3734C18.8647 4.35802 19.3154 3.41784 19.5782 3.34754ZM6.8855 2.17862C6.73173 2.30776 6.29402 3.16925 5.88053 4.04329C5.86621 4.07349 5.85581 4.08943 5.84926 4.09726C5.86087 4.09411 5.88446 4.09902 5.91962 4.14751C6.00846 4.26957 6.15705 4.33334 6.30694 4.31433C7.63074 4.14783 9.75857 4.01483 11.9998 4.01483C14.2413 4.01483 16.3692 4.14783 17.6926 4.31433C17.8425 4.33301 17.9908 4.26892 18.0796 4.14719C18.1685 4.02513 18.184 3.86475 18.1194 3.72853C17.7056 2.85416 17.2679 2.30776 17.1141 2.17862C16.7972 1.91229 14.494 1.6028 11.9998 1.6028C9.50596 1.6028 7.20272 1.91229 6.8855 2.17862ZM4.99025 4.70756L4.99832 4.6892C4.99316 4.70144 4.99025 4.70756 4.99025 4.70756ZM5.00065 4.68431C5.00045 4.68473 5.00026 4.68517 5.00007 4.68561C4.99949 4.68692 4.9989 4.68823 4.99832 4.6892L5.00065 4.68431ZM5.1215 4.4204C5.12375 4.41538 5.12605 4.41027 5.12851 4.40515C5.12495 4.41256 5.12172 4.41964 5.11849 4.42705C5.11949 4.42486 5.12049 4.42264 5.1215 4.4204ZM4.56998 8.87391C4.22465 9.04878 4.03471 9.87194 4.03471 9.87194C4.8213 10.119 5.92253 10.3054 7.0861 10.4223L6.65065 9.30385C6.6009 9.17567 6.4901 9.08067 6.3554 9.05039C5.89701 8.94702 4.84747 8.7335 4.56998 8.87391ZM19.9649 9.87194C19.9649 9.87194 19.7749 9.04878 19.4296 8.87391C19.1521 8.7335 18.1026 8.94702 17.6442 9.05039C17.5098 9.08067 17.399 9.17567 17.3489 9.30385L16.9135 10.4223C18.0771 10.3054 19.1783 10.119 19.9649 9.87194ZM19.0097 4.70756C19.0097 4.70756 19.0068 4.70144 19.0016 4.6892L19.0097 4.70756ZM19.0016 4.6892C19.0006 4.68759 18.9997 4.68534 18.9987 4.68308L19.0016 4.6892ZM15.5194 7.20411C15.7403 7.03849 15.7852 6.7251 15.6196 6.50414C15.4539 6.28318 15.1406 6.23832 14.9196 6.40394L11.315 9.10579L9.66606 7.86761C9.44523 7.7018 9.13181 7.7464 8.966 7.96722C8.80019 8.18804 8.84478 8.50146 9.0656 8.66727L11.0145 10.1307C11.1923 10.2642 11.4368 10.2643 11.6146 10.1309L15.5194 7.20411Z" fill="#0095E6"/>
<ellipse opacity="0.1" cx="12" cy="14.5" rx="12" ry="0.5" fill="#00529B"/>
</svg>
