<svg width="70" height="21" viewBox="0 0 70 21" fill="none" xmlns="http://www.w3.org/2000/svg">
<path d="M3.42467 17.29H2.60761C1.16473 17.29 0 16.1175 0 14.665V2.62499C0 1.1725 1.16473 0 2.60761 0H6.86672C8.8137 0 10.726 0.507505 12.3601 1.5575C12.4644 1.6275 12.5513 1.68 12.6382 1.75C15.5066 3.72749 17.1755 7.07 17.1755 10.57V14.665C17.1755 16.1175 16.0107 17.29 14.5678 17.29H14.3766L12.3948 14.1925L10.8476 11.69C11.6473 11.48 12.3427 11.0075 12.8642 10.36C13.5769 9.48495 13.9594 8.38245 13.9246 7.26245C13.9246 6.475 13.7508 5.6875 13.4031 4.9875C12.8294 3.76249 11.7168 2.85249 10.3957 2.53749C9.78725 2.39749 9.144 2.345 8.51817 2.345C8.44863 2.345 8.37914 2.345 8.3096 2.345H3.40729V17.29H3.42467ZM11.5952 17.29H5.70199V4.63749H7.97931C8.08361 4.63749 8.18791 4.63749 8.3096 4.63749C8.84851 4.63749 9.38742 4.69 9.92633 4.795C10.2219 4.8825 10.4826 5.0225 10.7086 5.2325C10.9868 5.4775 11.1954 5.775 11.3344 6.125C11.4908 6.51 11.5604 6.91245 11.5604 7.31495C11.5778 7.94495 11.3344 8.53995 10.8825 8.95995C10.6565 9.16995 10.3783 9.34495 10.0827 9.44995C9.78721 9.55495 9.47434 9.62495 9.14404 9.62495C9.10927 9.62495 9.07446 9.62495 9.03969 9.62495H6.90149L11.5952 17.29ZM17.1755 4.83C17.1233 4.6725 17.0538 4.49748 16.9842 4.33998C16.1846 2.43249 14.6721 0.909991 12.7773 0.104995C12.6904 0.0699953 12.6035 0.0349999 12.5339 0H14.5678C16.0107 0 17.1755 1.1725 17.1755 2.62499V4.83Z" fill="#40A691"/>
<path d="M56.8803 17.2024C55.5072 17.2024 54.1512 16.6424 53.1601 15.6624C52.1171 14.6824 51.5436 13.2824 51.5784 11.8299C51.5436 10.3774 52.1347 8.99491 53.1949 8.01496C54.2032 7.03496 55.6115 6.47496 57.0194 6.50996C58.2539 6.50996 59.2622 6.84246 60.079 7.52496V6.75496H62.3041V16.9749H60.079V16.1699C59.2622 16.8524 58.2363 17.1849 57.0194 17.1849C56.9498 17.2024 56.9151 17.2024 56.8803 17.2024ZM56.8803 8.60996C56.0635 8.60996 55.2638 8.94246 54.6728 9.53741C54.0641 10.1499 53.734 11.0074 53.7688 11.8649V11.8824V11.8999C53.7512 12.7574 54.0817 13.5799 54.6728 14.1924C55.281 14.7874 56.1154 15.1199 56.9675 15.1024H56.9846H57.0022C57.8367 15.1199 58.6535 14.7699 59.2274 14.1574C59.8185 13.5449 60.1485 12.7224 60.1314 11.8824V11.6199C60.079 10.8674 59.7661 10.1324 59.2274 9.58991C58.6535 8.95991 57.8367 8.60991 57.0022 8.62741H56.9846H56.9675C56.9498 8.60991 56.9151 8.60996 56.8803 8.60996ZM23.9725 17.2024C22.5992 17.2024 21.2432 16.6424 20.2523 15.6624C19.2093 14.6824 18.6356 13.2824 18.6704 11.8299C18.6356 10.3774 19.2267 8.99491 20.2871 8.01496C21.2954 7.03496 22.6861 6.47496 24.1116 6.50996C25.3459 6.50996 26.3542 6.84246 27.1712 7.52496V6.75496H29.3964V16.9749H27.1712V16.1699C26.3542 16.8524 25.3285 17.1849 24.1116 17.1849C24.0421 17.2024 24.0073 17.2024 23.9725 17.2024ZM23.9725 8.60996C23.1555 8.60996 22.3558 8.94246 21.7647 9.53741C21.1563 10.1499 20.826 11.0074 20.8608 11.8649V11.8824V11.8999C20.8434 12.7574 21.1737 13.5799 21.7647 14.1924C22.3732 14.7874 23.2076 15.1199 24.0594 15.1024H24.0768H24.0942C24.9287 15.1199 25.7457 14.7699 26.3194 14.1574C26.9104 13.5449 27.2407 12.7224 27.2234 11.8824V11.8649V11.8474C27.2407 11.0074 26.9104 10.1674 26.3194 9.57246C25.7457 8.94246 24.9287 8.59246 24.0942 8.60996H24.0768H24.0594C24.0421 8.60996 24.0073 8.60996 23.9725 8.60996ZM35.7241 17.2024C35.6894 17.2024 35.6546 17.2024 35.6198 17.2024C34.2639 17.2024 32.9253 16.6424 31.9692 15.6449C30.9609 14.6824 30.3872 13.3174 30.4046 11.9174C30.3872 10.5174 30.9435 9.11746 31.9344 8.11996C32.8905 7.08746 34.2291 6.50996 35.6198 6.50996C35.6372 6.50996 35.672 6.50996 35.6894 6.50996C37.0801 6.49246 38.4361 7.06996 39.4096 8.08496C40.4178 9.06496 40.9915 10.4299 40.9741 11.8299V11.8474C40.9915 13.2649 40.4178 14.6299 39.4096 15.6274C38.4534 16.6249 37.1149 17.2024 35.7241 17.2024ZM67.4675 16.9749H65.2594V8.83746H63.33V6.73746H65.2594V2.95746H67.4675V6.73746H69.6579V8.83746H67.4675V16.9749ZM47.7715 16.9749H45.7895L41.4957 6.73746H43.8772L46.7456 13.6324L49.6661 6.73746H52.0475L47.7715 16.9749ZM35.672 15.0849C36.5238 15.1024 37.3235 14.7524 37.8798 14.1224C38.4708 13.4924 38.7837 12.6699 38.749 11.7949V11.5324C38.6968 10.7799 38.3839 10.0799 37.8624 9.53741L37.845 9.51996C37.2887 8.90746 36.5064 8.57496 35.6894 8.57496C34.8375 8.55746 34.0379 8.90746 33.4816 9.53741C32.8905 10.1674 32.5776 10.9899 32.5776 11.8474C32.5602 12.6874 32.8905 13.5099 33.4816 14.0874L33.499 14.1049C34.0553 14.7524 34.8549 15.1024 35.672 15.0849Z" fill="#6E6E6E"/>
<path d="M57.2457 21C58.0139 21 58.6364 20.3732 58.6364 19.6C58.6364 18.8268 58.0139 18.2 57.2457 18.2C56.4776 18.2 55.855 18.8268 55.855 19.6C55.855 20.3732 56.4776 21 57.2457 21Z" fill="#6E6E6E"/>
<path d="M57.3151 5.14511C57.2803 5.14511 57.2632 5.14511 57.2284 5.14511C56.7416 5.16261 56.2373 5.05761 55.8029 4.83011C55.2985 4.56759 54.9337 4.13009 54.7422 3.6051L54.5165 2.92261H56.2373L56.394 3.13261C56.4459 3.20261 56.6197 3.4476 57.2108 3.4476C57.3846 3.4476 57.5585 3.4126 57.7323 3.3601C57.8714 3.3076 57.9757 3.23761 58.0628 3.13261L58.2191 2.92261H59.9575L59.7141 3.6226C59.5231 4.1476 59.1578 4.5851 58.6711 4.84761C58.2367 5.04011 57.7671 5.14511 57.3151 5.14511Z" fill="#6E6E6E"/>
</svg>
