<svg width="136" height="25" viewBox="0 0 136 25" fill="none" xmlns="http://www.w3.org/2000/svg">
<g clip-path="url(#clip0_2024_15279)">
<path fill-rule="evenodd" clip-rule="evenodd" d="M7.83989 18.6158C5.2847 18.6715 4.39796 15.5282 4.80039 12.1788C4.96276 10.3892 5.70625 8.07037 0.705037 8.07037C1.37348 9.20961 -0.588248 13.4977 0.182547 16.7593C0.481313 18.0239 1.14839 19.106 2.44576 19.7313C4.28336 20.6171 6.39653 19.7996 7.83989 18.6158Z" fill="#3854A2"/>
<path d="M28 8.04823C24.8514 13.761 17.0862 24.6629 8.84503 24.2451C12.8449 24.0307 16.5556 21.2746 19.771 17.8945H18.7356C19.6755 16.9907 20.5705 16.0395 21.4149 15.0674H20.4081C22.022 13.2109 23.4517 11.2806 24.6549 9.47572C25.6317 7.98137 25.5308 8.04684 26.9932 8.04684L26.9727 8.08305C27.2087 8.04126 27.5211 8.04823 28 8.04823Z" fill="#6C2A86"/>
<path d="M26.8254 4.84911C22.0752 12.52 13.4547 24.1155 6.27759 23.5013C10.7236 23.135 15.4861 18.5615 19.6032 13.4085H18.591C19.209 12.644 19.8093 11.8613 20.3931 11.0716H19.7206C20.8556 9.53688 21.9252 7.97567 22.9238 6.46322C24.0124 4.81429 23.9401 4.83936 25.7681 4.84911C26.0478 4.84354 26.3916 4.84911 26.8254 4.84911Z" fill="#0F9B39"/>
<path d="M13.5829 14.5936C15.5897 12.233 17.4573 9.53261 19.0739 6.95056H18.1121C19.1516 5.14146 20.0588 3.35464 20.775 1.81434C21.3084 0.65563 22.4271 0.741975 23.7981 0.746154C24.1174 0.740586 24.5185 0.747546 25.0369 0.747546C21.6809 7.63993 12.0986 23.2617 4.49042 22.2409C7.86546 21.8063 11.5093 18.5795 14.7643 14.595H13.5829V14.5936Z" fill="#F49700"/>
<path d="M19.857 2.05547C18.1954 5.9536 14.6198 12.3502 10.1452 16.5101C9.24071 17.2538 8.15755 18.0616 7.13983 17.7454C7.84786 17.556 8.54906 17.0185 9.16707 16.5101C9.45628 16.2413 9.74003 15.9642 10.0211 15.6787H9.27893C10.1916 14.7456 11.1738 13.527 12.1574 12.1692H11.3744C13.613 9.00077 14.9568 6.24325 16.5093 3.16962C17.1382 1.92456 17.7807 2.05129 18.9921 2.05547C19.209 2.0499 19.4873 2.05547 19.857 2.05547Z" fill="#E31013"/>
<path fill-rule="evenodd" clip-rule="evenodd" d="M7.90104 11.1302C7.92557 11.1288 7.99789 11.0898 8.02109 11.0773L8.07429 11.0466C8.16022 10.9923 8.1507 10.9923 8.22707 10.9352C8.24618 10.9213 8.25574 10.9059 8.27212 10.8906C8.34576 10.8238 8.39759 10.7528 8.4508 10.6692L8.48219 10.6163C8.51492 10.5606 8.56269 10.4478 8.57494 10.392L8.60907 10.4882C8.61316 10.5007 8.61453 10.5077 8.62135 10.5216C8.6609 10.6037 8.66227 10.6149 8.71137 10.697C8.75093 10.7639 8.83552 10.8683 8.88872 10.9199L9.06061 11.0564C9.08655 11.0745 9.22431 11.1427 9.2325 11.1538C9.21885 11.158 9.19158 11.1845 9.16838 11.2012C9.11108 11.2444 9.09201 11.2541 9.03198 11.289L8.95557 11.3252C8.73049 11.424 8.45489 11.4296 8.22298 11.3363C8.0702 11.275 8.04017 11.2472 7.91742 11.1497C7.89012 11.1302 7.91196 11.1511 7.90104 11.1302ZM7.78372 11.0104C7.75778 10.9603 7.72642 10.9282 7.67186 10.8168C7.64182 10.7556 7.6091 10.6469 7.59681 10.5815C7.53679 10.2779 7.61729 10.0049 7.78645 9.76953C7.83692 9.69989 7.95015 9.58989 8.02246 9.54531L8.12203 9.4882C8.19981 9.4492 8.22707 9.44502 8.26666 9.42552C8.3362 9.53138 8.34985 9.53556 8.40442 9.67203C8.5013 9.91575 8.49448 10.1887 8.40169 10.431C8.39213 10.4561 8.38261 10.4728 8.37169 10.4965C8.33893 10.5634 8.30348 10.6274 8.25574 10.6845C8.24618 10.6957 8.24618 10.6984 8.23663 10.7096C8.1725 10.782 8.12476 10.821 8.05109 10.8781C8.03065 10.8934 8.017 10.9018 7.99379 10.9171C7.98151 10.9254 7.97335 10.9282 7.96107 10.9352C7.92558 10.9589 7.82054 11.0076 7.78372 11.0104ZM9.67452 10.0857C9.68408 10.0913 9.68135 10.0913 9.6895 10.0982L9.74547 10.1428C9.77274 10.1636 9.79731 10.1804 9.82457 10.1985L9.90644 10.2458C9.93916 10.2625 9.9651 10.2751 9.99783 10.289C10.1274 10.3489 10.2407 10.3642 10.3757 10.3739C10.5408 10.3865 10.5503 10.3628 10.6254 10.3628C10.6158 10.3823 10.6063 10.4171 10.5981 10.438L10.534 10.5773C10.4589 10.7012 10.3826 10.7959 10.2666 10.8837C10.1929 10.9394 10.1247 10.977 10.0374 11.0132C9.89825 11.0703 9.69906 11.1037 9.53809 11.0759C9.51488 11.0717 9.49717 11.0787 9.50673 11.0564L9.56812 10.9533C9.66224 10.7876 9.71271 10.5801 9.71271 10.3851C9.71407 10.2235 9.68681 10.1873 9.67452 10.0857ZM8.89691 9.43945C8.92012 9.44085 8.95148 9.45617 8.97059 9.46592C9.07017 9.51328 9.13292 9.55088 9.21748 9.62189L9.29253 9.69849C9.30208 9.70824 9.30891 9.71382 9.31846 9.72357L9.36211 9.78067C9.62132 10.1302 9.63494 10.6372 9.36893 10.9923C9.35938 11.0048 9.35119 11.0118 9.34709 11.0271L9.14521 10.9268C9.0988 10.8976 9.01151 10.8294 8.97332 10.7904C8.95831 10.7751 8.95557 10.7667 8.94056 10.75C8.9092 10.7179 8.86146 10.6539 8.83825 10.6163C8.76731 10.4965 8.68544 10.2918 8.68544 10.1469C8.68544 10.1177 8.68274 10.0968 8.68138 10.0773C8.67865 10.0439 8.69499 9.9046 8.70318 9.86421C8.73322 9.71799 8.78505 9.60656 8.86552 9.48542C8.8778 9.4687 8.88736 9.45756 8.89691 9.43945ZM7.42902 10.392C7.42902 10.484 7.4481 10.6288 7.47676 10.7179C7.50543 10.8057 7.53815 10.9032 7.58862 10.9839C7.60364 11.0076 7.61592 11.0271 7.62817 11.0508C7.60773 11.0508 7.61046 11.0536 7.59954 11.055L7.48905 11.0619C7.35671 11.0619 7.2271 11.0299 7.13026 10.9909L6.9829 10.9199L6.85469 10.8294C6.81784 10.8015 6.76873 10.743 6.74553 10.7207C6.64459 10.6204 6.55183 10.4199 6.5218 10.2848C6.56818 10.3071 6.73464 10.3071 6.80009 10.3071C7.0102 10.3071 7.21076 10.2235 7.37991 10.1149L7.48495 10.0341C7.45356 10.1692 7.42902 10.2305 7.42902 10.392ZM9.32938 9.51885H9.33481L9.33075 9.52581L9.32938 9.51885ZM7.83965 9.49517V9.50074L7.83282 9.49656L7.83965 9.49517ZM8.42899 9.38792C8.46444 9.38792 8.47537 9.38235 8.51219 9.38235C8.57904 9.38235 8.62135 9.37956 8.68544 9.38792C8.70864 9.3907 8.72639 9.39349 8.74547 9.39349C8.68547 9.48542 8.65681 9.5272 8.61589 9.63581C8.60907 9.65253 8.5845 9.71521 8.5845 9.72914H8.57904C8.57904 9.68874 8.51765 9.55228 8.49584 9.5077C8.48765 9.49238 8.48083 9.48403 8.474 9.4687C8.46718 9.45478 8.46035 9.44363 8.45216 9.4297C8.4481 9.42135 8.44674 9.41995 8.44128 9.41299L8.42899 9.38792ZM7.83965 9.49517C7.83965 9.47288 7.84374 9.47149 7.8492 9.45338L7.87647 9.32249C7.88739 9.25841 7.89012 9.19991 7.89012 9.12609C7.92694 9.13445 7.9365 9.14559 7.96653 9.16231C8.01563 9.19016 8.12749 9.26259 8.15749 9.30856C8.0934 9.32388 7.9283 9.42135 7.87783 9.46592C7.86555 9.47567 7.85193 9.48681 7.83965 9.49517ZM9.44124 9.21802L9.4508 9.08713C9.73318 9.02027 9.98011 9.08016 10.2175 9.22638L10.298 9.28627C10.3539 9.32806 10.4057 9.3907 10.4494 9.44363C10.4862 9.4882 10.5176 9.53695 10.5449 9.59128C10.594 9.69014 10.5926 9.68457 10.6254 9.78625C10.6622 9.90321 10.6649 9.99236 10.6649 10.1149C10.6649 10.1525 10.6595 10.1636 10.6595 10.1999C10.5435 10.2277 10.5217 10.2166 10.4767 10.2235C10.3962 10.2361 10.2475 10.2138 10.1683 10.1887C10.0497 10.1511 9.98417 10.1233 9.88187 10.055C9.82048 10.0132 9.75909 9.96311 9.71134 9.906C9.65814 9.84196 9.62405 9.81132 9.57764 9.72496C9.57218 9.71521 9.57218 9.71242 9.56676 9.70267C9.50127 9.59406 9.4508 9.41995 9.4467 9.28627C9.4467 9.25981 9.43851 9.25006 9.44124 9.21802ZM10.4535 9.21802C10.5081 9.21802 10.5476 9.22916 10.6145 9.22916C10.8587 9.22916 11.1506 9.13027 11.3307 8.97291C11.3402 8.96455 11.3416 8.96594 11.3498 8.95898C11.3661 8.94505 11.3661 8.9353 11.388 8.92973L11.4016 8.98962C11.4071 9.01191 11.4112 9.03559 11.4152 9.05509C11.4412 9.21245 11.4262 9.4102 11.3702 9.55646C11.3607 9.58013 11.3539 9.60239 11.3429 9.62467C11.3375 9.63721 11.3334 9.64417 11.3293 9.65531C11.2979 9.73053 11.2311 9.82525 11.1765 9.8851L11.0537 10.0049C10.9651 10.0829 10.9009 10.1024 10.8163 10.1483C10.8163 10.0996 10.8204 10.0369 10.8163 9.98957C10.7986 9.75282 10.7086 9.53556 10.5708 9.35031L10.4535 9.21802ZM6.80009 10.1539C6.71553 10.1539 6.56408 10.1539 6.49454 10.1205C6.49454 9.84335 6.53136 9.68457 6.67052 9.47149C6.70052 9.42413 6.7428 9.37538 6.77965 9.33363L6.91063 9.22359C6.93653 9.20688 6.95427 9.19434 6.98154 9.17763C7.14664 9.07459 7.3117 9.03837 7.52314 9.03837C7.57497 9.03837 7.70868 9.05648 7.74007 9.0718C7.74007 9.27513 7.72915 9.37817 7.65275 9.56203C7.62408 9.63024 7.54498 9.76257 7.48768 9.81968C7.45356 9.85446 7.46584 9.85307 7.43039 9.87953C7.41128 9.89346 7.40855 9.90461 7.38401 9.92271C7.34442 9.95196 7.32808 9.96868 7.2803 9.99932L7.18073 10.0578C7.05931 10.1051 6.95154 10.1539 6.80009 10.1539ZM9.32938 9.51885L9.29526 9.49099C9.2284 9.43667 9.09201 9.33781 9.01287 9.3197C9.03881 9.2807 9.17111 9.20131 9.21479 9.17484L9.29662 9.13863C9.29662 9.19434 9.28297 9.16509 9.29662 9.2807C9.29935 9.3002 9.29526 9.31413 9.29935 9.33502L9.32938 9.51885ZM6.34446 10.069C6.31992 10.0564 6.29671 10.0453 6.27078 10.0314C6.19441 9.99236 6.15482 9.95057 6.10026 9.91018C6.02388 9.85307 5.91608 9.70407 5.87107 9.61074C5.76876 9.40185 5.72921 9.16788 5.78105 8.92973C5.78651 8.90605 5.79876 8.85451 5.80695 8.83644L6.03613 9.01052C6.18485 9.09827 6.38674 9.16509 6.56275 9.16509H6.66779C6.70188 9.16509 6.70871 9.15952 6.74007 9.15952C6.71826 9.19156 6.6855 9.20688 6.66097 9.23752C6.65278 9.24866 6.65414 9.24866 6.64459 9.25981L6.53818 9.39488C6.52999 9.40742 6.52863 9.4102 6.5218 9.42274L6.4154 9.64278C6.3663 9.76675 6.34446 9.92411 6.34446 10.069ZM9.83549 8.91719H9.84095L9.83686 8.92416L9.83549 8.91719ZM9.83549 8.91719C9.70861 8.91719 9.74001 8.89909 9.56812 8.91162C9.54355 8.91301 9.50946 8.92276 9.48489 8.92276C9.49171 8.89491 9.50263 8.86705 9.51215 8.84201C9.52307 8.81276 9.53127 8.79466 9.54492 8.7668C9.55857 8.73894 9.56812 8.72362 9.58174 8.69715L9.62405 8.63308C9.63221 8.66372 9.7168 8.78212 9.74816 8.81833L9.83549 8.91719ZM7.34988 8.88794L7.41537 8.82391C7.43858 8.80023 7.45492 8.77933 7.47676 8.75565L7.53269 8.68183C7.54634 8.66094 7.57497 8.61358 7.58999 8.60383C7.59545 8.62194 7.67459 8.74033 7.71277 8.90466C7.61046 8.87959 7.53815 8.88237 7.43448 8.88237C7.39763 8.88237 7.38538 8.88794 7.34988 8.88794ZM9.73045 8.51333C9.73045 8.48686 9.74274 8.48965 9.75908 8.47572C9.86822 8.37822 9.95554 8.3114 10.1083 8.25986C10.3757 8.16932 10.6104 8.18604 10.8696 8.30443C10.9037 8.31975 11.0101 8.38658 11.0374 8.41026C11.081 8.44926 11.1411 8.49243 11.1779 8.54397C11.1888 8.5579 11.1874 8.55651 11.1983 8.56904C11.2079 8.58019 11.2079 8.58297 11.2175 8.59412C11.2543 8.63865 11.2966 8.71526 11.3239 8.76819L11.1888 8.88655C11.1629 8.90466 11.1424 8.91719 11.1138 8.9353C11.0851 8.95341 11.0606 8.96455 11.0306 8.97987C10.8123 9.08991 10.5326 9.09966 10.3061 9.02305C10.257 9.00634 10.2243 8.9938 10.1793 8.97012C10.1575 8.95898 10.1397 8.95202 10.1206 8.93948C10.1097 8.93252 10.1029 8.92973 10.0933 8.92276L9.96237 8.82391C9.94735 8.80858 9.91599 8.78769 9.89279 8.75844L9.84914 8.7069C9.81775 8.66233 9.78639 8.62751 9.75772 8.57322C9.75636 8.56208 9.73045 8.52029 9.73045 8.51333ZM6.63913 9.0133C6.46178 9.0133 6.31719 8.98823 6.16301 8.90884C6.08528 8.86984 5.99931 8.80719 5.93792 8.7473C5.92291 8.73337 5.91472 8.73198 5.9011 8.71665C5.89291 8.7069 5.89564 8.7069 5.88745 8.69715C5.86698 8.67069 5.85606 8.6888 5.93519 8.56765L6.09889 8.3824C6.1712 8.30861 6.33217 8.22225 6.42632 8.18882C6.74416 8.07743 7.08797 8.13729 7.34988 8.34065C7.36763 8.35454 7.48495 8.45483 7.48495 8.47015C7.48495 8.48826 7.43312 8.56347 7.4222 8.58158C7.39353 8.62472 7.34306 8.68601 7.30624 8.72501L7.21345 8.8058C7.04429 8.92834 6.85469 9.0133 6.63913 9.0133ZM9.62405 8.02589C9.64859 8.03146 9.67998 8.05236 9.70315 8.0635C9.75772 8.08996 9.9119 8.14007 9.97329 8.14425L9.95827 8.15679C9.95145 8.16096 9.94326 8.16375 9.93643 8.16793L9.73728 8.29329C9.71953 8.30722 9.67998 8.34483 9.6636 8.349L9.64859 8.27379C9.63221 8.20693 9.62405 8.09971 9.62405 8.02589ZM10.6199 8.05932C10.6718 8.05932 10.8791 7.91167 10.935 7.85321C10.9637 7.82396 10.9992 7.79192 11.0237 7.76267C11.1042 7.66378 11.1724 7.55656 11.2202 7.43538C11.2379 7.3922 11.2529 7.34906 11.2652 7.29891C11.3116 7.31145 11.4494 7.50502 11.478 7.55795L11.5026 7.60667C11.5094 7.62478 11.5162 7.63453 11.5244 7.65263C11.6295 7.87685 11.6308 8.154 11.5544 8.38936C11.5353 8.44786 11.4657 8.61497 11.4262 8.64422C11.418 8.60662 11.3348 8.49383 11.3075 8.46458C11.2324 8.37961 11.2093 8.349 11.1069 8.2724L10.9473 8.1735C10.8736 8.13589 10.6936 8.06628 10.6199 8.06628V8.05932ZM7.55044 8.31418L7.45219 8.22782C7.40991 8.193 7.34715 8.14843 7.29805 8.12336L7.25577 8.09832C7.37445 8.07046 7.48495 8.04957 7.59545 7.99107C7.61319 8.07464 7.56815 8.24175 7.55044 8.31418ZM9.47397 8.05932C9.47397 8.1735 9.504 8.37683 9.55174 8.4799C9.53263 8.49383 9.49035 8.55929 9.47533 8.58297C9.44943 8.62333 9.43305 8.65397 9.41121 8.69855C9.36893 8.78351 9.34163 8.86566 9.31846 8.96734C9.24206 8.9743 9.07563 9.08016 9.00741 9.12609C8.99922 9.13166 8.98967 9.13723 8.98148 9.1442L8.90374 9.21245C8.88736 9.22916 8.87098 9.24309 8.85736 9.26259L8.66773 9.22916C8.62951 9.22638 8.49448 9.22498 8.45353 9.23195L8.32259 9.25145L8.18069 9.1247C8.03338 9.0133 8.03201 9.02584 7.88739 8.95759C7.86282 8.94644 7.87783 8.95759 7.86145 8.89212C7.83555 8.7863 7.83009 8.77515 7.79464 8.68322C7.75778 8.58576 7.71141 8.52447 7.66093 8.44508C7.67595 8.41304 7.69093 8.36568 7.70049 8.32672C7.72233 8.24454 7.74413 8.14425 7.74413 8.05375V7.9855C7.74277 7.95903 7.74413 7.927 7.74413 7.90053C7.76324 7.8866 7.77962 7.87407 7.79873 7.86014C7.81098 7.85042 7.81098 7.85182 7.82327 7.83928C7.83692 7.82535 7.83692 7.82674 7.85057 7.8156C7.87374 7.79749 7.92421 7.74317 7.94605 7.71949C7.95697 7.70696 7.95561 7.70556 7.96516 7.69442C8.00471 7.64985 8.03474 7.60392 8.0661 7.55238C8.07975 7.5301 8.08931 7.51338 8.10019 7.49109C8.38807 7.49109 8.6118 7.34906 8.61726 7.34906C8.62951 7.34906 8.63633 7.35602 8.64452 7.36156C8.65544 7.36852 8.66227 7.3727 8.67319 7.37688C8.81368 7.44792 8.9665 7.50781 9.13429 7.50781C9.18476 7.58581 9.20933 7.65263 9.2857 7.73899C9.29662 7.75014 9.29526 7.75292 9.30481 7.76406C9.313 7.77381 9.32119 7.78078 9.32938 7.78914L9.47807 7.927C9.47943 7.97993 9.47397 8.00918 9.47397 8.05932ZM5.76603 8.54258L5.7101 8.43533C5.69236 8.39911 5.67738 8.36011 5.66373 8.31836C5.60507 8.13729 5.59688 7.90332 5.65417 7.71949C5.70055 7.5677 5.74692 7.47995 5.84244 7.35602C5.86152 7.33095 5.95567 7.2237 5.98839 7.22091C5.98976 7.31423 6.08801 7.5092 6.15482 7.60667C6.18485 7.64985 6.21348 7.69163 6.25034 7.73063L6.28989 7.77521C6.31036 7.79192 6.31582 7.79749 6.33353 7.8156L6.38131 7.85739C6.45495 7.91725 6.58183 7.98689 6.58865 7.99246C6.4727 7.99525 6.2026 8.10668 6.10026 8.18743C6.08391 8.20136 6.07026 8.20972 6.05251 8.22364L5.96113 8.30165C5.94611 8.31697 5.9311 8.3309 5.91608 8.34761C5.9052 8.35872 5.90793 8.36011 5.89974 8.36986C5.89291 8.37961 5.88609 8.38379 5.8779 8.39354C5.86834 8.40468 5.86971 8.40747 5.85879 8.41861C5.8247 8.45343 5.78787 8.52726 5.76603 8.54258ZM9.51352 7.75849L9.37849 7.61224C9.35938 7.5872 9.31983 7.53567 9.313 7.5092C9.45486 7.5092 9.60358 7.43259 9.6636 7.41866C9.60358 7.53288 9.59812 7.52174 9.54355 7.66517C9.53127 7.69442 9.52581 7.73342 9.51352 7.75849ZM7.57907 7.38384C7.65138 7.42284 7.84784 7.48413 7.92967 7.48552C7.92285 7.51199 7.85739 7.5886 7.83555 7.61642C7.81508 7.64428 7.7455 7.70974 7.71823 7.72924C7.70458 7.6986 7.67595 7.5482 7.58862 7.40752C7.58043 7.39499 7.58316 7.39499 7.57907 7.38384ZM8.76321 7.24738C8.78096 7.2432 8.77004 7.24738 8.78369 7.23484L8.83689 7.18609C8.85873 7.16659 8.88326 7.14987 8.9051 7.11923C8.9351 7.07748 8.96377 7.0538 9.00741 6.98555L9.02379 6.96326C9.02379 6.99948 9.02379 7.03569 9.02379 7.07191C9.02379 7.10394 9.03198 7.13873 9.03471 7.16798L9.06198 7.30448C9.06607 7.32259 9.07153 7.32956 9.0729 7.35045C8.98694 7.35045 8.87098 7.29891 8.79597 7.26966C8.78096 7.2627 8.77277 7.2627 8.76321 7.24738ZM8.16841 7.33791C8.18069 7.28359 8.19844 7.25573 8.21479 7.1638C8.22707 7.09698 8.23526 7.0343 8.23526 6.95769L8.31849 7.07748C8.34712 7.11784 8.40988 7.18191 8.4481 7.21813C8.46581 7.23623 8.474 7.22788 8.48083 7.25295L8.16841 7.33791ZM10.1697 8.00778C10.0156 8.00778 9.88596 7.97435 9.75635 7.91864C9.7168 7.90192 9.68271 7.87964 9.64722 7.86014C9.65132 7.81421 9.67998 7.72785 9.69496 7.68746C9.72226 7.61781 9.7509 7.56631 9.78775 7.50363C9.79594 7.4897 9.8014 7.48413 9.81092 7.4702L9.84778 7.42284C9.96237 7.27523 10.077 7.2028 10.2434 7.12341C10.3361 7.07887 10.5094 7.04823 10.6145 7.04823C10.8218 7.04823 10.9719 7.10673 11.137 7.19584C11.1329 7.2028 11.1083 7.30866 11.0865 7.36574C11.0469 7.4702 11.0087 7.53149 10.9473 7.61503C10.77 7.85874 10.4657 8.00778 10.1697 8.00778ZM6.11664 7.12341C6.25443 7.04962 6.3922 6.99251 6.55593 6.99251C6.73328 6.99251 6.84514 7.00087 7.01157 7.07748C7.08661 7.11227 7.18209 7.16937 7.24348 7.22648C7.2803 7.25991 7.32398 7.29473 7.35398 7.33513L7.40036 7.39499C7.46038 7.47856 7.49587 7.5496 7.53542 7.64846C7.55863 7.70556 7.56951 7.76267 7.58316 7.82674L7.48086 7.87546C7.22847 7.97993 6.97608 7.9855 6.72236 7.88242C6.69779 7.87267 6.67052 7.86014 6.64595 7.84764C6.59548 7.82257 6.52044 7.77242 6.47679 7.7376C6.46997 7.73203 6.4686 7.72924 6.46178 7.72367C6.32674 7.61503 6.23259 7.46463 6.16711 7.30309C6.15619 7.27523 6.1453 7.24598 6.13848 7.21813L6.11664 7.12341ZM9.24069 7.36156C9.18066 7.24738 9.17384 7.08027 9.17384 6.94098C9.17384 6.78919 9.22021 6.68054 9.26936 6.55522C9.28434 6.51622 9.33344 6.4424 9.35665 6.40618C9.41258 6.31986 9.50946 6.22793 9.59402 6.16525C9.71544 6.07475 9.87231 6.01764 10.021 5.99396L10.1315 5.98142C10.1902 6.10678 10.1984 6.25578 10.1984 6.402C10.1984 6.54408 10.1356 6.74183 10.0633 6.86576C10.0551 6.87969 10.0497 6.88526 10.0415 6.90058C10.0087 6.95769 9.95008 7.02316 9.90507 7.06912C9.88323 7.09141 9.86958 7.10812 9.84505 7.12619L9.77956 7.17773C9.75499 7.19584 9.73318 7.20838 9.70725 7.2237C9.67998 7.24041 9.65814 7.25434 9.62815 7.26688C9.55038 7.30031 9.44261 7.33931 9.35392 7.35045C9.31983 7.35324 9.27478 7.36156 9.24069 7.36156ZM8.62408 7.16241C8.60224 7.16241 8.48083 7.04127 8.45489 7.00644C8.44673 6.9953 8.444 6.9953 8.43581 6.98555C8.42899 6.97719 8.42899 6.9758 8.42217 6.96605L8.34712 6.85048C8.32805 6.81844 8.3144 6.78919 8.29938 6.75158L8.27891 6.69865C8.27212 6.67915 8.26802 6.6694 8.2612 6.64294C8.22025 6.49672 8.21888 6.46468 8.21888 6.3115C8.21888 6.07335 8.33893 5.80456 8.48765 5.65413C8.56133 5.57895 8.54222 5.60124 8.6077 5.54413C8.62272 5.53159 8.6377 5.52184 8.65408 5.51209C8.66363 5.52463 8.68002 5.53438 8.69363 5.54552C8.74956 5.59009 8.78096 5.63045 8.8246 5.6792C8.86688 5.72656 8.93646 5.83521 8.95967 5.8881L9.00332 5.99674C9.0197 6.04271 9.04287 6.1346 9.04833 6.18335C9.07426 6.40757 9.04423 6.64572 8.92691 6.83655C8.87644 6.92008 8.87917 6.91033 8.83143 6.97719C8.81914 6.99391 8.80686 7.00226 8.79461 7.01898C8.78232 7.03709 8.77413 7.04684 8.75639 7.05937L8.69363 7.11366C8.68275 7.12202 8.68411 7.12202 8.67182 7.13177C8.6609 7.13873 8.6336 7.16241 8.62408 7.16241ZM7.07296 6.33379C7.07296 6.22375 7.09749 6.08589 7.13435 5.98282C7.13981 5.9661 7.14527 5.95635 7.15073 5.93685C7.30351 5.93685 7.39763 5.98282 7.5245 6.03296C7.60773 6.06639 7.73871 6.17082 7.8001 6.2335C7.87783 6.31289 7.94196 6.40757 7.99243 6.51343C8.04153 6.61508 8.08521 6.79058 8.08521 6.90198C8.08521 7.02037 8.08658 7.05241 8.06064 7.17216C8.05382 7.20141 8.04426 7.23484 8.03611 7.25991C8.03201 7.27384 8.0129 7.33931 8.00198 7.33931C7.90787 7.33931 7.75505 7.29891 7.6664 7.25573C7.58862 7.21813 7.54907 7.19862 7.4754 7.14291C7.46311 7.13455 7.45492 7.12759 7.44404 7.11784C7.43175 7.10673 7.4222 7.10116 7.40991 7.09002C7.34442 7.02316 7.29395 6.97441 7.24075 6.89362L7.19711 6.81844C7.17254 6.77665 7.13845 6.69726 7.12343 6.6499C7.11251 6.61786 7.10432 6.58726 7.09749 6.55243C7.08934 6.51622 7.08797 6.48836 7.08115 6.45075C7.07705 6.42011 7.07296 6.36439 7.07296 6.33379ZM10.298 5.99396C10.3757 5.99535 10.5367 6.05246 10.609 6.09007C10.7086 6.14157 10.74 6.175 10.8177 6.23489C10.8941 6.29339 11.0019 6.44657 11.0483 6.5385C11.0605 6.56497 11.0715 6.59143 11.0838 6.62065C11.1329 6.7474 11.1533 6.85744 11.1533 7.03151C10.9391 6.91591 10.6308 6.85605 10.3689 6.92426C10.3334 6.93401 10.298 6.94237 10.2639 6.95351L10.1629 6.99251L10.2297 6.86715C10.2925 6.73904 10.3471 6.55243 10.3471 6.40757C10.3471 6.26554 10.3484 6.20425 10.3143 6.06639C10.3089 6.03853 10.3007 6.02321 10.298 5.99396ZM6.92288 6.33379C6.92288 6.39086 6.93107 6.4619 6.93926 6.51065C6.98427 6.78919 7.08661 6.91173 7.09613 6.94655C7.07569 6.94098 7.0634 6.93123 7.04566 6.92426L6.87241 6.86855C6.81238 6.85326 6.6596 6.82958 6.60367 6.83515C6.46724 6.85048 6.36766 6.84351 6.21758 6.90615L6.10572 6.95212C6.10572 6.79197 6.12756 6.69308 6.18076 6.55243C6.20123 6.4995 6.23259 6.43822 6.26126 6.39643C6.42359 6.14993 6.64868 5.99674 6.93789 5.94521C6.95973 5.94103 6.97338 5.94382 6.98973 5.93685C6.98836 5.95357 6.93653 6.11235 6.92834 6.22096L6.92288 6.33379ZM8.79597 5.42573C8.80686 5.42295 8.89691 5.38395 8.9842 5.3617C9.17657 5.31434 9.4194 5.33384 9.59129 5.41459C9.6404 5.43688 9.68681 5.45777 9.73045 5.48841L9.84914 5.57756C9.94326 5.6597 9.95964 5.68617 10.0279 5.78088C10.0388 5.7962 10.0538 5.81571 10.0592 5.83381C10.0101 5.83521 9.89825 5.86167 9.84914 5.87417C9.70588 5.91317 9.57355 5.98839 9.45486 6.08032L9.34436 6.18335C9.33348 6.19868 9.28024 6.24882 9.24615 6.29896C9.23523 6.31429 9.22158 6.33936 9.20796 6.3505C9.20796 6.06221 9.13156 5.85749 8.99376 5.64995L8.80413 5.44106C8.79188 5.42573 8.80007 5.43409 8.79597 5.42573ZM8.06747 6.33379C8.06474 6.32961 8.0661 6.33239 8.05928 6.32404C7.99652 6.23907 7.94605 6.15132 7.85466 6.07335L7.78372 6.01485C7.76597 6.00092 7.75232 5.99117 7.73188 5.97724C7.65001 5.92153 7.59954 5.89506 7.50543 5.8561C7.43858 5.82963 7.30214 5.78785 7.22847 5.78785L7.34988 5.62767C7.37445 5.59984 7.39626 5.58731 7.41401 5.56781C7.42356 5.55806 7.42493 5.55666 7.43448 5.5497C7.57361 5.44523 7.60773 5.42016 7.77826 5.3617C7.97608 5.29345 8.21888 5.30598 8.41261 5.37977C8.444 5.39091 8.474 5.41041 8.50813 5.41877C8.50267 5.43827 8.43991 5.48563 8.42353 5.50234C8.39486 5.53159 8.36487 5.55666 8.34166 5.5887C8.25574 5.70845 8.21615 5.74745 8.15206 5.90621C8.13432 5.94939 8.1234 5.98421 8.10975 6.03296C8.08248 6.12346 8.06747 6.22096 8.06747 6.33379ZM5.9543 7.04962C5.927 7.05659 5.90247 7.08723 5.87926 7.10394C5.83971 7.13455 5.79876 7.17077 5.76603 7.20977L5.72921 7.25573C5.64052 7.37688 5.5546 7.50642 5.51501 7.65681C5.47819 7.79889 5.46454 7.87964 5.46454 8.03703C5.46454 8.16793 5.49866 8.31836 5.53685 8.41165L5.69236 8.70133C5.65008 8.79048 5.60916 8.95898 5.60916 9.05927C5.60916 9.0927 5.60643 9.1038 5.6037 9.12748C5.59961 9.15813 5.60916 9.17345 5.60916 9.20131C5.61189 9.36145 5.65827 9.53835 5.73194 9.6776C5.83698 9.88093 6.00204 10.0662 6.20669 10.1692L6.30354 10.218C6.31446 10.2221 6.32128 10.2235 6.33217 10.2277C6.34445 10.2319 6.34582 10.2347 6.36084 10.2389C6.3622 10.2737 6.37585 10.3169 6.38268 10.3461C6.40721 10.4436 6.4454 10.5425 6.4959 10.6274C6.50406 10.6413 6.51088 10.6525 6.51907 10.6664C6.52453 10.6762 6.5259 10.6803 6.53136 10.6873L6.57227 10.7472C6.58319 10.7611 6.59139 10.7709 6.60231 10.7848L6.64732 10.8363C6.65551 10.8461 6.65278 10.8461 6.66097 10.8558C6.69779 10.9004 6.75508 10.9449 6.80146 10.9798C6.93243 11.0801 7.08661 11.1538 7.24894 11.1873C7.38944 11.2151 7.52723 11.2221 7.67186 11.1984C7.78918 11.1789 7.70458 11.1845 7.84647 11.2931C7.89558 11.3307 7.94332 11.3697 7.99789 11.399L8.1234 11.463C8.40988 11.5995 8.77277 11.5745 9.04969 11.4477C9.06471 11.4407 9.08109 11.4324 9.09747 11.4226L9.35119 11.2388C9.40985 11.1789 9.39077 11.2096 9.50673 11.2249C9.73728 11.2555 9.97465 11.2193 10.1738 11.1176L10.3253 11.0285C10.3389 11.0188 10.3471 11.0132 10.3607 11.0021L10.4562 10.9171C10.5367 10.8349 10.6145 10.7486 10.6677 10.6441C10.6772 10.626 10.68 10.6204 10.6895 10.6037C10.7304 10.5355 10.7631 10.406 10.7864 10.3336C10.7945 10.3071 10.8409 10.3015 10.8669 10.2904C10.935 10.2598 11.0019 10.2263 11.0633 10.1845C11.1192 10.1469 11.1833 10.0982 11.2311 10.0495C11.242 10.0383 11.2502 10.03 11.2611 10.0188C11.2748 10.0049 11.2761 9.99793 11.2884 9.984L11.4357 9.77092C11.4439 9.75421 11.4494 9.75003 11.4575 9.73192C11.4712 9.70267 11.4821 9.67482 11.4944 9.64417C11.6745 9.18738 11.5039 8.85312 11.5039 8.79605C11.5039 8.79466 11.5489 8.73476 11.5544 8.7278C11.6062 8.65258 11.6485 8.56765 11.6813 8.48269C11.7795 8.22782 11.7822 7.9451 11.6976 7.68328L11.6485 7.55795C11.639 7.53706 11.6295 7.51895 11.6172 7.49945C11.6062 7.47995 11.5981 7.46324 11.5871 7.44513C11.5558 7.39081 11.5148 7.34488 11.478 7.29473C11.4521 7.25991 11.4234 7.23623 11.3934 7.2042C11.3661 7.17634 11.332 7.1443 11.2979 7.12619L11.3034 6.96744C11.3034 6.88248 11.2897 6.79197 11.272 6.72094C11.2475 6.61926 11.212 6.51343 11.1574 6.4229C11.1479 6.40757 11.1438 6.39643 11.1329 6.37972L11.0769 6.29479C10.9664 6.14853 10.83 6.03017 10.6677 5.9466C10.564 5.89646 10.3839 5.83381 10.2311 5.83381C10.1683 5.71403 10.1411 5.68199 10.0674 5.58034C10.0238 5.52045 9.91326 5.42016 9.84505 5.38116C9.82184 5.36723 9.80683 5.35473 9.78366 5.3408C9.60221 5.2433 9.43851 5.18062 9.21343 5.18062C8.98557 5.18062 8.80007 5.24748 8.65135 5.32827C8.6118 5.30737 8.57494 5.2823 8.52993 5.26559C8.51082 5.25723 8.48765 5.24609 8.46718 5.23912C8.13841 5.1138 7.77962 5.15416 7.47949 5.33105C7.45219 5.34777 7.43039 5.36309 7.40582 5.37977C7.34442 5.42155 7.28986 5.4717 7.23802 5.52602C7.20666 5.55806 7.18346 5.59427 7.15479 5.62767C7.14391 5.6402 7.13981 5.65134 7.12889 5.66388C7.04293 5.77949 7.1166 5.77253 6.94472 5.78785C6.88333 5.79342 6.79467 5.8171 6.74143 5.83521C6.4959 5.91874 6.31173 6.06778 6.1712 6.25718C6.05797 6.41175 5.98293 6.60676 5.96113 6.79755C5.95294 6.8769 5.9543 6.96466 5.9543 7.04962Z" fill="#F49700"/>
</g>
<path fill-rule="evenodd" clip-rule="evenodd" d="M36.7524 12.9214H38.579C39.0507 12.9214 39.2934 12.6854 39.2934 12.2067V11.8493C39.2934 11.3774 39.0575 11.1346 38.579 11.1346H35.0067L36.2604 8.99015H38.5723C40.4729 8.99015 41.43 9.94106 41.43 11.8493C41.43 13.1372 41.0255 13.8519 40.2168 13.9935C41.0255 14.1352 41.43 14.8501 41.43 16.138C41.43 18.0395 40.4796 18.997 38.5723 18.997H35V16.8527H38.5723C39.044 16.8527 39.2866 16.6167 39.2866 16.138V15.7806C39.2866 15.3017 39.0507 15.0657 38.5723 15.0657H36.7457V12.9214H36.7524Z" fill="#4F4F4F"/>
<path fill-rule="evenodd" clip-rule="evenodd" d="M44.2886 11.1347H42.6035L43.8572 8.9903H46.4318V18.9903H44.2886V11.1347Z" fill="#4F4F4F"/>
<path fill-rule="evenodd" clip-rule="evenodd" d="M60.6663 18.9909V16.8466H64.9464C65.4181 16.8466 65.6607 16.6105 65.6607 16.1319V15.7745C65.6607 15.2956 65.4249 15.0596 64.9464 15.0596H63.5242C61.6235 15.0596 60.6663 14.1089 60.6663 12.2006V11.8432C60.6663 9.94171 61.6167 8.98406 63.5242 8.98406H67.8041L66.5504 11.1285H63.5242C63.0523 11.1285 62.8097 11.3644 62.8097 11.8432V12.2006C62.8097 12.6725 63.0456 12.9153 63.5242 12.9153H64.9531C66.8537 12.9153 67.8109 13.8661 67.8109 15.7745V16.1319C67.8109 18.0334 66.8605 18.9909 64.9531 18.9909H60.6663ZM75.9191 12.9221V15.0663H71.6392V16.8533H75.9191V18.9976H69.4958V8.99755H75.9191V11.142H71.6392V12.9288H75.9191V12.9221ZM86.1708 18.9909H84.0274L83.3601 16.8466H79.6935L79.033 18.9909H76.8897L79.8889 8.9908H83.1714L86.1708 18.9909ZM80.3474 14.7023H82.7199L81.5336 11.1352L80.3474 14.7023ZM92.1424 16.1319C92.1424 16.6038 92.3782 16.8466 92.8569 16.8466H94.2858C94.7575 16.8466 95.0001 16.6105 95.0001 16.1319V15.0596H93.5712V12.9153H97.1435V16.125C97.1435 18.0266 96.1931 18.9841 94.2858 18.9841H92.8569C90.9561 18.9841 89.9991 18.0334 89.9991 16.125V11.8432C89.9991 9.94171 90.9493 8.98406 92.8569 8.98406H97.1368L95.8831 11.1285H92.8569C92.385 11.1285 92.1424 11.3644 92.1424 11.8432V16.1319ZM107.388 18.9909H105.245L104.578 16.8466H100.911L100.251 18.9909H98.1074L101.107 8.9908H104.389L107.388 18.9909ZM101.565 14.7023H103.938L102.751 11.1352L101.565 14.7023ZM108.359 8.9908H111.358L113.717 15.0596L116.07 8.9908H119.069V18.9909H116.926V12.9221L114.641 18.9909H112.787L110.502 12.9221V18.9909H108.359V8.9908ZM127.177 12.9221V15.0663H122.897V16.8533H127.177V18.9976H120.754V8.99755H127.177V11.142H122.897V12.9288H127.177V12.9221ZM128.862 18.9909V16.8466H133.142C133.614 16.8466 133.857 16.6105 133.857 16.1319V15.7745C133.857 15.2956 133.614 15.0596 133.142 15.0596H131.713C129.813 15.0596 128.855 14.1089 128.855 12.2006V11.8432C128.855 9.94171 129.806 8.98406 131.713 8.98406H135.993L134.74 11.1285H131.713C131.241 11.1285 130.999 11.3711 130.999 11.8432V12.2006C130.999 12.6725 131.235 12.9153 131.713 12.9153H133.142C135.043 12.9153 136 13.8661 136 15.7745V16.1319C136 18.0334 135.05 18.9909 133.142 18.9909H128.862Z" fill="#4F4F4F"/>
<path d="M48.3528 12.4026V11.5193V11.3845H48.4877H50.4693C50.5772 11.3845 50.6579 11.3575 50.7051 11.317C50.7523 11.2698 50.7726 11.1889 50.7726 11.081C50.7726 10.953 50.7456 10.8653 50.6984 10.8046C50.6514 10.7507 50.5772 10.7305 50.4693 10.7305H49.8087C49.3302 10.7305 48.9662 10.6091 48.7236 10.373C48.4742 10.1302 48.3528 9.77974 48.3528 9.3144C48.3528 8.83558 48.4742 8.47157 48.7236 8.22879C48.9729 7.97926 49.3302 7.85787 49.8087 7.85787H51.9319L51.3927 9.01091H49.8154C49.7077 9.01091 49.6268 9.03789 49.5796 9.08509C49.5324 9.1323 49.5121 9.21324 49.5121 9.32114C49.5121 9.41556 49.5324 9.48299 49.5796 9.51671C49.6268 9.55718 49.7077 9.58416 49.8222 9.58416H50.4828C50.9612 9.58416 51.3252 9.71229 51.5746 9.96839C51.824 10.2247 51.9453 10.5956 51.9453 11.0877C51.9453 11.5665 51.824 11.9307 51.5746 12.1802C51.3252 12.4296 50.9612 12.551 50.4895 12.551H48.508H48.3731V12.4026H48.3528Z" fill="#4F4F4F"/>
<path d="M54.2496 10.8574C54.2496 11.0395 54.2901 11.1744 54.3778 11.2553C54.4587 11.3363 54.5934 11.3835 54.7822 11.3835H55.2202H55.3551V11.5183V12.4016V12.5365H55.2202H54.7822C54.2296 12.5365 53.8116 12.3949 53.5285 12.1117C53.2454 11.8286 53.1038 11.4104 53.1038 10.8574V9.00316H52.4434C52.4434 8.61875 52.4434 8.23434 52.4434 7.8501H53.1038V6.66333V6.5824L53.178 6.54193L54.061 6.10357L54.2564 6.00241V6.21822V7.8501H55.3619C55.3619 8.23434 55.3619 8.61875 55.3619 9.00316H54.2564V10.8574H54.2496Z" fill="#4F4F4F"/>
<defs>
<clipPath id="clip0_2024_15279">
<rect width="28" height="24" fill="white" transform="translate(0 0.5)"/>
</clipPath>
</defs>
</svg>
