<svg width="156" height="22" viewBox="0 0 156 22" fill="none" xmlns="http://www.w3.org/2000/svg">
<path d="M11.1108 17.0944L11.0928 9.76839L7.50008 15.8035H6.22728L2.65133 9.92572V17.0944H0V4.88483H2.33668L6.90688 12.4726L11.4074 4.88483H13.7274L13.7622 17.0944H11.1108Z" fill="#031D3A"/>
<path d="M28.7017 8.40019C29.068 9.19713 29.2511 10.0598 29.2511 10.9909C29.2511 12.1889 28.9596 13.267 28.3793 14.2264C27.7977 15.1858 27.0008 15.9389 25.9898 16.4857C24.9775 17.0325 23.8388 17.3059 22.5712 17.3059C21.3035 17.3059 20.161 17.0325 19.1435 16.4857C18.126 15.9389 17.3291 15.1858 16.754 14.2264C16.1788 13.267 15.89 12.1889 15.89 10.9909C15.89 9.79291 16.1801 8.71484 16.7617 7.75541C17.3433 6.79597 18.1505 6.04287 19.1861 5.4961C20.2216 4.94933 21.3899 4.67594 22.6924 4.67594C23.2043 4.67594 23.8439 4.72236 24.6112 4.81521C25.216 4.88485 25.6403 4.91967 25.884 4.91967C26.338 4.91967 26.6887 4.82166 26.9389 4.62307C27.1891 4.42577 27.3141 4.14077 27.3141 3.76809C27.3141 3.4083 27.1981 3.05883 26.9647 2.72097L28.5689 2.12777C28.9416 2.65133 29.1273 3.23292 29.1273 3.87254C29.1273 4.51217 28.9583 5.04733 28.6218 5.47676C28.2839 5.90747 27.8081 6.20923 27.1916 6.38332C27.8313 6.93138 28.3355 7.60324 28.7017 8.40019ZM24.5235 14.4005C25.1051 14.0691 25.5616 13.6074 25.8931 13.0142C26.2245 12.421 26.3895 11.7466 26.3895 10.9909C26.3895 10.2352 26.2245 9.56079 25.8931 8.96759C25.5616 8.37439 25.1051 7.91273 24.5235 7.58132C23.942 7.2499 23.2907 7.08484 22.5699 7.08484C21.849 7.08484 21.1978 7.25119 20.6162 7.58132C20.0346 7.91273 19.5781 8.37439 19.2467 8.96759C18.9153 9.56079 18.7502 10.2352 18.7502 10.9909C18.7502 11.7466 18.9165 12.421 19.2467 13.0142C19.5781 13.6074 20.0346 14.0691 20.6162 14.4005C21.1978 14.7319 21.849 14.897 22.5699 14.897C23.2907 14.897 23.942 14.7319 24.5235 14.4005ZM22.2384 3.15813C22.5634 3.00725 22.793 2.84477 22.9271 2.66939C23.0612 2.4953 23.1282 2.30315 23.1282 2.09424C23.1282 1.87373 23.0522 1.69577 22.9013 1.56166C22.7504 1.42754 22.5518 1.36048 22.3081 1.36048C21.9586 1.36048 21.6156 1.47139 21.279 1.6919L20.7206 0.593197C21.221 0.198592 21.849 0 22.6047 0C23.2211 0 23.724 0.171511 24.1135 0.514534C24.5029 0.857557 24.6976 1.30761 24.6976 1.86599C24.6976 2.84219 24.1625 3.57595 23.0934 4.0634L22.2384 3.15813Z" fill="#031D3A"/>
<path d="M38.7822 16.4935C37.7763 15.9532 36.9858 15.2026 36.4094 14.2432C35.8343 13.2838 35.5454 12.1993 35.5454 10.9897C35.5454 9.78005 35.833 8.69553 36.4094 7.7361C36.9846 6.77666 37.7751 6.02614 38.7822 5.48581C39.7881 4.94549 40.919 4.67468 42.175 4.67468C43.2325 4.67468 44.1893 4.86038 45.0443 5.23306C45.8993 5.60574 46.6163 6.13962 47.1979 6.83727L45.3835 8.51112C44.5581 7.55814 43.5342 7.081 42.313 7.081C41.5573 7.081 40.8829 7.24735 40.2897 7.57748C39.6965 7.9089 39.2348 8.37056 38.9034 8.96376C38.572 9.55695 38.4069 10.2314 38.4069 10.9871C38.4069 11.7428 38.5733 12.4172 38.9034 13.0104C39.2348 13.6036 39.6965 14.0653 40.2897 14.3967C40.8829 14.7281 41.5573 14.8931 42.313 14.8931C43.5342 14.8931 44.5568 14.4109 45.3835 13.445L47.1979 15.1201C46.6163 15.8294 45.8954 16.3697 45.0353 16.7424C44.1751 17.1138 43.2157 17.3008 42.157 17.3008C40.9138 17.3046 39.7881 17.0338 38.7822 16.4935Z" fill="#031D3A"/>
<path d="M50.347 15.8564C49.3759 14.8918 48.8911 13.5133 48.8911 11.7221V4.88484H51.7165V11.6176C51.7165 13.8034 52.623 14.897 54.4374 14.897C55.3208 14.897 55.9952 14.6326 56.4607 14.1039C56.9263 13.5752 57.1584 12.746 57.1584 11.6189V4.88484H59.949V11.7221C59.949 13.5133 59.4628 14.8905 58.4931 15.8564C57.522 16.8223 56.1641 17.3046 54.4207 17.3046C52.6759 17.3046 51.318 16.8223 50.347 15.8564ZM54.106 3.15812C54.431 3.00724 54.6605 2.84476 54.7946 2.66938C54.9287 2.49529 54.9958 2.30315 54.9958 2.09424C54.9958 1.87372 54.9197 1.69576 54.7688 1.56165C54.618 1.42753 54.4194 1.36048 54.1756 1.36048C53.8262 1.36048 53.4832 1.47138 53.1466 1.69189L52.5882 0.594479C53.0886 0.199874 53.7166 0.00128174 54.4722 0.00128174C55.0887 0.00128174 55.5916 0.172793 55.981 0.515816C56.3705 0.858839 56.5652 1.30889 56.5652 1.86727C56.5652 2.84347 56.03 3.57723 54.961 4.06468L54.106 3.15812ZM58.5008 4.88484H58.9715C59.2849 4.88484 59.5389 4.78297 59.7298 4.57922C59.9219 4.37547 60.0173 4.11111 60.0173 3.78614C60.0173 3.37864 59.9013 3.03046 59.6679 2.73902L61.2721 2.14582C61.6435 2.63456 61.8304 3.21615 61.8304 3.89059C61.8304 4.76233 61.5712 5.44838 61.0541 5.94873C60.537 6.44908 59.8187 6.69925 58.9006 6.69925H58.4995V4.88484H58.5008Z" fill="#031D3A"/>
<path d="M70.7452 14.4779H65.0763L63.9944 17.0944H61.0993L66.5412 4.88483H69.3318L74.7918 17.0944H71.8271L70.7452 14.4779ZM69.8567 12.3333L67.9211 7.65867L65.9854 12.3333H69.8567Z" fill="#031D3A"/>
<path d="M96.7608 15.8564C95.7897 14.8918 95.3049 13.5133 95.3049 11.7221V4.88483H98.1303V11.6176C98.1303 13.8034 99.0368 14.897 100.851 14.897C101.735 14.897 102.409 14.6326 102.875 14.1039C103.34 13.5752 103.572 12.746 103.572 11.6189V4.88483H106.363V11.7221C106.363 13.5133 105.877 14.8905 104.907 15.8564C103.936 16.8223 102.578 17.3046 100.834 17.3046C99.0884 17.3046 97.7318 16.8223 96.7608 15.8564Z" fill="#00A0D6"/>
<path d="M114.09 4.88483H116.915V14.7925H123.038V17.0944H114.09V4.88483Z" fill="#00A0D6"/>
<path d="M124.624 4.88483H127.45V17.0944H124.624V4.88483ZM125.174 20.4356C124.947 20.2203 124.833 19.9391 124.833 19.5897C124.833 19.2402 124.947 18.9501 125.174 18.7179C125.401 18.4858 125.688 18.3685 126.038 18.3685C126.374 18.3685 126.659 18.4845 126.893 18.7179C127.125 18.9501 127.242 19.2415 127.242 19.5897C127.242 19.9391 127.129 20.2203 126.902 20.4356C126.675 20.651 126.387 20.758 126.038 20.758C125.688 20.758 125.401 20.6497 125.174 20.4356Z" fill="#00A0D6"/>
<path d="M132.813 16.4935C131.807 15.9532 131.017 15.2026 130.44 14.2432C129.865 13.2838 129.576 12.1993 129.576 10.9897C129.576 9.78005 129.864 8.69553 130.44 7.7361C131.017 6.77666 131.806 6.02614 132.813 5.48581C133.819 4.94549 134.95 4.67468 136.206 4.67468C137.263 4.67468 138.22 4.86038 139.075 5.23306C139.93 5.60574 140.647 6.13962 141.229 6.83727L139.414 8.51112C138.589 7.55814 137.565 7.081 136.344 7.081C135.588 7.081 134.914 7.24735 134.32 7.57748C133.727 7.9089 133.266 8.37056 132.934 8.96376C132.603 9.55695 132.438 10.2314 132.438 10.9871C132.438 11.7428 132.604 12.4172 132.934 13.0104C133.266 13.6036 133.727 14.0653 134.32 14.3967C134.914 14.7281 135.588 14.8931 136.344 14.8931C137.565 14.8931 138.588 14.4109 139.414 13.445L141.229 15.1201C140.647 15.8294 139.926 16.3697 139.066 16.7424C138.206 17.1138 137.246 17.3008 136.188 17.3008C134.943 17.3046 133.819 17.0338 132.813 16.4935Z" fill="#00A0D6"/>
<path d="M154.328 4.88483V17.0944H151.503V12.0883H145.956V17.0944H143.131V4.88483H145.956V9.69875H151.503V4.88483H154.328Z" fill="#00A0D6"/>
<path d="M92.4356 7.77989C91.8708 6.86172 91.0803 6.1486 90.0628 5.64309C89.0454 5.13758 87.8744 4.88483 86.5488 4.88483H81.0024V12.3333C81.0024 12.3333 81.2667 13.748 82.0263 14.0652C82.1617 14.0845 82.2971 14.1039 82.4338 14.1232C82.7575 14.0884 83.1456 13.8692 83.6099 13.3611C84.167 12.7499 84.8092 12.0496 85.2102 11.5918C85.2257 11.5751 85.2373 11.5544 85.2541 11.5312C83.9645 10.7588 81.8535 9.41634 81.8574 9.41247C82.1501 9.09008 82.4428 8.76769 82.7394 8.44917C82.7575 8.42983 82.8039 8.42596 82.8323 8.4337C83.027 8.49044 83.2191 8.55234 83.4126 8.61165C84.697 9.01271 85.5326 9.19969 86.8157 9.60204C86.8905 9.62525 86.9395 9.62525 86.9988 9.55819C87.5288 8.94823 88.0653 8.34472 88.594 7.73346C88.7771 7.52069 88.9706 7.33499 89.2504 7.27438C89.3278 7.2718 89.4052 7.27051 89.4825 7.26793C89.5019 7.27309 89.5212 7.28083 89.5418 7.2847C89.7765 7.32854 89.9726 7.4446 90.1028 7.65093C90.1763 7.76828 90.2163 7.90885 90.2717 8.04038C90.2743 8.12033 90.2756 8.20029 90.2782 8.28024C90.2356 8.57684 90.0628 8.78704 89.8655 8.99079C89.3059 9.56722 88.7552 10.154 88.1981 10.733C88.1414 10.7923 88.1324 10.8387 88.1607 10.9161C88.6894 12.4133 88.9809 13.432 89.5083 14.9292C89.5289 14.9898 89.5225 15.0272 89.4799 15.0736C89.2066 15.3677 88.6263 16.0008 88.603 16.0253C87.7868 14.7358 87.2052 13.9311 86.3914 12.6454C86.3747 12.657 86.3669 12.6609 86.3605 12.6673C85.9182 13.1303 85.2192 13.8511 84.6248 14.4688C84.6222 14.4714 83.0205 16.7952 85.5262 17.097H86.5514C87.877 17.097 89.0479 16.8442 90.0654 16.3387C91.0829 15.8332 91.8734 15.1214 92.4382 14.2019C93.0017 13.2837 93.2841 12.2134 93.2841 10.9922C93.2816 9.76839 92.9992 8.69935 92.4356 7.77989Z" fill="#00A0D6"/>
</svg>
